# xmcd
#
# Track frame offsets: 
#        150
#        26411
#        48371
#        68834
#        94305
#        113381
#        139131
#        163906
#        185625
#        212347
#        230218
#        253665
#        276420
#        295217
#        316605
#        332695
#
# Disc length: 4748 seconds
#
# Revision: 3
# Processed by: cddbd v1.5.2PL0 Copyright (c) Steve Scherf et al.
# Submitted via: ExactAudioCopy v1.3
#
DISCID=eb128a10
DTITLE=Various Artist - Philadelphia International Records: The 40th 
DTITLE=Anniversary Box Set [CD8]
DYEAR=2012
DGENRE=Soul
TTITLE0=Teddy Pendergrass - Come Go With Me
TTITLE1=Jean Carn - Don't Let It Go To Your Head
TTITLE2=The Stylistics - Mine All Mine
TTITLE3=Patti LaBelle - I'm In Love Again
TTITLE4=The O'Jays - Brandy
TTITLE5=Dexter Wansel - The Sweetest Pain
TTITLE6=The Futures - Ain't No Time Fa Nothing
TTITLE7=The Jones Girls - When I'm Gone
TTITLE8=Teddy Pendergrass - Turn Off The Lights
TTITLE9=Silk - I Can't Stop (Turning You On)
TTITLE10=McFadden and Whitehead - I've Been Pushed Aside
TTITLE11=Jean Carn - We Got Some Catchin' Up To Do
TTITLE12=The Stylistics - Maybe It's Love This Time
TTITLE13=The Jones Girls - Who Can I Run To
TTITLE14=Teddy Pendergrass - Close The Door
TTITLE15=The Jones Girls - Children Of The Night
EXTD=
EXTT0=
EXTT1=
EXTT2=
EXTT3=
EXTT4=
EXTT5=
EXTT6=
EXTT7=
EXTT8=
EXTT9=
EXTT10=
EXTT11=
EXTT12=
EXTT13=
EXTT14=
EXTT15=
PLAYORDER=
